<svg height="512" viewBox="0 0 512 512" width="512" xmlns="http://www.w3.org/2000/svg"><g><g><path d="m48 456v20a20 20 0 0 0 20 20h408a20 20 0 0 0 20-20v-440a20 20 0 0 0 -20-20h-408a20 20 0 0 0 -20 20v228" fill="#a0815c"/><g><path d="m392 336a24 24 0 0 1 -24 24h-32a24 24 0 0 1 0 48h-64a24 24 0 0 1 0 48h-160l-32-24h-16v-144h16l103.86-97.97a20 20 0 0 1 28.23.06l3.67 3.67a20 20 0 0 1 -.1 28.38l-47.66 41.86h168a24 24 0 0 1 0 48h32a24.006 24.006 0 0 1 24 24z" fill="#ffdaaa"/><path d="m16 264h48v192h-48z" fill="#cca400"/></g><path d="m336 160-64-48-64 48v-144h128z" fill="#ff9811"/><path d="m368 48h96v72h-96z" fill="#ffda44"/></g><g><path d="m40 392a8 8 0 0 0 8-8v-88a8 8 0 0 0 -16 0v88a8 8 0 0 0 8 8z"/><path d="m48 408a8 8 0 0 0 -16 0v8a8 8 0 0 0 16 0z"/><path d="m432 456h-40a8 8 0 0 0 0 16h40a8 8 0 0 0 0-16z"/><path d="m464 456h-8a8 8 0 0 0 0 16h8a8 8 0 0 0 0-16z"/><path d="m476 8h-408a28.031 28.031 0 0 0 -28 28v220h-24a8 8 0 0 0 -8 8v192a8 8 0 0 0 8 8h24v12a28.031 28.031 0 0 0 28 28h408a28.031 28.031 0 0 0 28-28v-440a28.031 28.031 0 0 0 -28-28zm-260 16h112v120l-51.2-38.4a8 8 0 0 0 -9.6 0l-51.2 38.4zm-192 424v-176h32v176zm464 28a12.01 12.01 0 0 1 -12 12h-408a12.01 12.01 0 0 1 -12-12v-12h8a8 8 0 0 0 8-8v-16h5.33l29.87 22.4a7.982 7.982 0 0 0 4.8 1.6h160a32 32 0 0 0 27.71-48h36.29a32 32 0 0 0 27.71-48h4.29a32 32 0 0 0 0-64h-4.29a32 32 0 0 0 -27.71-48h-146.77l31.71-27.85c.12-.1.23-.21.34-.31a28.006 28.006 0 0 0 .14-39.74l-3.67-3.67a28.067 28.067 0 0 0 -39.45-.16l-101.48 95.73h-4.82v-16a8 8 0 0 0 -8-8h-8v-220a12.01 12.01 0 0 1 12-12h132v136a8 8 0 0 0 12.8 6.4l59.2-44.4 59.2 44.4a7.982 7.982 0 0 0 4.8 1.6 7.985 7.985 0 0 0 8-8v-136h132a12.01 12.01 0 0 1 12 12zm-327.49-209.18a8.006 8.006 0 0 0 7.49 5.18h168a16 16 0 0 1 0 32h-104a8 8 0 0 0 0 16h136a16 16 0 1 1 0 32h-136a8 8 0 0 0 0 16h104a16 16 0 1 1 0 32h-104a8 8 0 0 0 0 16h40a16 16 0 1 1 0 32h-157.33l-29.87-22.4a7.982 7.982 0 0 0 -4.8-1.6h-8v-128h8a8.015 8.015 0 0 0 5.49-2.18l103.86-97.97a1.848 1.848 0 0 0 .14-.14 12.02 12.02 0 0 1 16.94.04l3.67 3.67a11.987 11.987 0 0 1 .09 16.88l-47.47 41.69a8.009 8.009 0 0 0 -2.21 8.83z"/><path d="m464 40h-96a8 8 0 0 0 -8 8v72a8 8 0 0 0 8 8h96a8 8 0 0 0 8-8v-72a8 8 0 0 0 -8-8zm-8 72h-80v-56h80z"/><path d="m392 80h48a8 8 0 0 0 0-16h-48a8 8 0 0 0 0 16z"/><path d="m392 104h48a8 8 0 0 0 0-16h-48a8 8 0 0 0 0 16z"/></g></g></svg>