<?xml version="1.0" encoding="iso-8859-1"?>
<!-- Generator: Adobe Illustrator 19.0.0, SVG Export Plug-In . SVG Version: 6.00 Build 0)  -->
<svg version="1.1" id="Layer_1" xmlns="http://www.w3.org/2000/svg" xmlns:xlink="http://www.w3.org/1999/xlink" x="0px" y="0px"
	 viewBox="0 0 495 495" style="enable-background:new 0 0 495 495;" xml:space="preserve">
<g>
	<path style="fill:#46F8FF;" d="M190.285,372.5V455h54.42c-21.38-21.638-35.484-50.473-38.314-82.5H190.285z"/>
	<path style="fill:#46F8FF;" d="M190.285,332.5h18.527c2.24-10.502,5.703-20.557,10.245-30h-28.773V332.5z"/>
	<path style="fill:#46F8FF;" d="M290.285,192.5v40h-100v30h58.161c24.05-22.536,56.358-36.359,91.839-36.359
		c6.795,0,13.473,0.511,20,1.489V111.716H248.569V0h-58.284l0,192.5H290.285z"/>
	<polygon style="fill:#9BFBFF;" points="90.285,372.5 90.285,332.5 190.285,332.5 190.285,302.5 90.285,302.5 90.285,262.5 
		190.285,262.5 190.285,232.5 90.285,232.5 90.285,192.5 190.285,192.5 190.285,0 20.285,0 20.285,455 190.285,455 190.285,372.5 	
		"/>
	<rect x="90.285" y="192.5" style="fill:#005ECE;" width="200" height="40"/>
	<path style="fill:#005ECE;" d="M90.285,332.5v40h116.106c-0.347-3.932-0.535-7.909-0.535-11.93c0-9.625,1.025-19.013,2.957-28.07
		H90.285z"/>
	<path style="fill:#005ECE;" d="M90.285,262.5v40h128.773c7.268-15.111,17.283-28.657,29.389-40H90.285z"/>
	<polygon style="fill:#00D7DF;" points="360.285,111.716 248.569,0 248.569,111.716 	"/>
	<path style="fill:#FFDA44;" d="M327.837,422.175l-62.344-62.343l28.285-28.284l34.059,34.059l12.448-12.448V226.141
		c-35.481,0-67.789,13.823-91.839,36.359c-12.105,11.343-22.121,24.889-29.389,40c-4.542,9.443-8.005,19.498-10.245,30
		c-1.932,9.057-2.957,18.446-2.957,28.07c0,4.021,0.188,7.998,0.535,11.93c2.83,32.027,16.934,60.862,38.314,82.5
		c24.386,24.68,58.226,40,95.58,40v-85.273L327.837,422.175z"/>
	<path style="fill:#FFCD00;" d="M360.285,227.63c-6.527-0.978-13.205-1.489-20-1.489v127.017l40.05-40.051l28.285,28.284
		l-68.335,68.335V495c74.125,0,134.43-60.305,134.43-134.43C474.715,293.241,424.958,237.319,360.285,227.63z"/>
	<polygon style="fill:#2488FF;" points="293.778,331.548 265.493,359.832 327.837,422.175 408.62,341.392 380.335,313.108 
		340.285,353.158 327.837,365.607 	"/>
</g>
<g>
</g>
<g>
</g>
<g>
</g>
<g>
</g>
<g>
</g>
<g>
</g>
<g>
</g>
<g>
</g>
<g>
</g>
<g>
</g>
<g>
</g>
<g>
</g>
<g>
</g>
<g>
</g>
<g>
</g>
</svg>
