<svg id="_x33_0" enable-background="new 0 0 64 64" height="512" viewBox="0 0 64 64" width="512" xmlns="http://www.w3.org/2000/svg"><g><g><g><path d="m28 62h-20-6v-.96c0-6.13 4.25-11.35 10.06-12.73l.94 4.69 5-3 5 3 .94-4.69c5.81 1.38 10.06 6.6 10.06 12.73v.96z" fill="#b4dd7f"/></g><g><path d="m23.94 48.31-.94 4.69-5-3 4-2c.66.06 1.31.16 1.94.31z" fill="#a0d468"/></g><g><path d="m18 50-5 3-.94-4.69c.63-.15 1.28-.26 1.94-.31z" fill="#a0d468"/></g><g><path d="m55 2h-34c-.55 0-1 .45-1 1v15h2c4.42 0 8 3.58 8 8v4 .76c0 1.41-.31 2.81-.92 4.08.57.54.92 1.31.92 2.16 0 .35-.06.69-.18 1h.01 18.17v-20c0-2.21 1.79-4 4-4h4v-11c0-.55-.45-1-1-1z" fill="#d3a06c"/></g><g><path d="m32 2h12v7c0 .55-.45 1-1 1h-3-4-3c-.55 0-1-.45-1-1z" fill="#b27946"/></g><g><path d="m30 26v4h-4-6v-2c0-1.1-.9-2-2-2h-12c0-4.42 3.58-8 8-8h6 2c4.42 0 8 3.58 8 8z" fill="#fcd770"/></g><g><path d="m20 28v2h-10-4-3c-.55 0-1-.45-1-1v-1c0-1.1.9-2 2-2h2 12c1.1 0 2 .9 2 2z" fill="#ffc729"/></g><g><path d="m30 30v.76c0 1.41-.31 2.81-.92 4.08-.54-.52-1.27-.84-2.08-.84h-1v-4z" fill="#656d78"/></g><g><path d="m10 30v4h-1c-.81 0-1.54.32-2.08.84-.61-1.27-.92-2.67-.92-4.08v-.76z" fill="#656d78"/></g><g><path d="m60 26v13.76c0 .08-.01.16-.03.24h-5.97v-14z" fill="#ff826e"/></g><g><path d="m54 26v14h-5.97c-.02-.08-.03-.16-.03-.24v-1.76-4-4-4z" fill="#b4dd7f"/></g><g><path d="m60 22v4h-6-6v-4z" fill="#ffeaa7"/></g><g><path d="m60 18v4h-12v-4c0-2.21 1.79-4 4-4h4c2.21 0 4 1.79 4 4z" fill="#aab2bd"/></g><g><path d="m55.73 48.55-.28.56c-.28.54-.84.89-1.45.89s-1.17-.35-1.45-.89l-.52-1.04-3.92-7.86c-.03-.07-.06-.14-.08-.21h5.97 5.97c-.02.07-.05.14-.08.21z" fill="#aab2bd"/></g><g><path d="m58.59 50.79c.89 1.18 1.41 2.63 1.41 4.21 0 3.87-3.13 7-7 7s-7-3.13-7-7c0-3.54 2.62-6.46 6.03-6.93l.52 1.04c.28.54.84.89 1.45.89s1.17-.35 1.45-.89l.28-.56c1.14.49 2.13 1.27 2.86 2.24z" fill="#e6e9ed"/></g><g><path d="m30 37c0 .35-.06.69-.18 1-.14.43-.39.81-.7 1.12-.54.54-1.29.88-2.12.88h-1v-6h1c.81 0 1.54.32 2.08.84.57.54.92 1.31.92 2.16z" fill="#f0d0b4"/></g><g><path d="m20 46c.44 0 .88-.05 1.29-.14l.71 2.14-4 2-4-2 .71-2.14c.41.09.85.14 1.29.14z" fill="#f0d0b4"/></g><g><path d="m26 34v6c0 2.87-2.02 5.27-4.71 5.86-.41.09-.85.14-1.29.14h-4c-.44 0-.88-.05-1.29-.14-2.69-.59-4.71-2.99-4.71-5.86v-6-4h10 6z" fill="#f0d0b4"/></g><g><path d="m10 34v6h-1c-.83 0-1.58-.34-2.12-.88s-.88-1.29-.88-2.12c0-.85.35-1.62.92-2.16.54-.52 1.27-.84 2.08-.84z" fill="#f0d0b4"/></g></g><g><circle cx="14" cy="34" r="1"/><circle cx="22" cy="34" r="1"/><path d="m19 41h-4v2h4c2.206 0 4-1.794 4-4h-2c0 1.103-.897 2-2 2z"/><path d="m62.743 47.669-1.486-1.338-2.67 2.967c-.458-.448-.962-.852-1.526-1.184l3.728-7.456c.138-.276.211-.586.211-.894v-21.764c0-2.414-1.721-4.434-4-4.899v-10.101c0-1.103-.897-2-2-2h-34c-1.103 0-2 .897-2 2v14h-5c-4.625 0-8.445 3.506-8.944 8h-1.056c-1.654 0-3 1.346-3 3v1c0 1.103.897 2 2 2h2.013c.029 1.252.291 2.497.757 3.661-.479.659-.77 1.463-.77 2.339 0 2.206 1.794 4 4 4h.08c.363 2.517 2.065 4.603 4.363 5.51l-.194.583c-6.919.916-12.249 6.907-12.249 13.949v1.958h34v-1.958c0-7.042-5.33-13.033-12.249-13.95l-.194-.583c2.298-.906 4-2.992 4.363-5.51h.08c1.474 0 2.75-.81 3.444-2h16.556v.764c0 .309.073.618.211.895l3.361 6.723c-3.254 1.04-5.572 4.106-5.572 7.619 0 4.411 3.589 8 8 8s8-3.589 8-8c0-1.486-.423-2.894-1.154-4.112zm-13.743-24.669h10v2h-10zm6 16v-12h4v12zm-2-12v12h-4v-12zm5.382 14-2 4h-4.763l-2-4zm-3.001 6-.829 1.657c-.211.424-.895.423-1.105.001l-.829-1.658zm3.619-29v3h-10v-3c0-1.654 1.346-3 3-3h4c1.654 0 3 1.346 3 3zm-20-13v4h-2v-4h-2v4h-2v-6h10v6h-2v-4zm-25 14h8c3.859 0 7 3.141 7 7v3h-8v-1c0-1.654-1.346-3-3-3h-10.929c.487-3.388 3.408-6 6.929-6zm14.59 14.334c-.488-.213-1.024-.334-1.59-.334v-2h1.987c-.023.791-.157 1.578-.397 2.334zm-25.59-5.334c0-.552.448-1 1-1h14c.552 0 1 .448 1 1v1h-16zm6 3v2c-.566 0-1.102.121-1.59.334-.24-.756-.374-1.543-.397-2.334zm-2 6c0-1.103.897-2 2-2v4c-1.103 0-2-.897-2-2zm15.176 12.03c.196.021.39.047.583.077l-.461 2.305-2.221-1.332zm-8.352 0 2.099 1.049-2.221 1.332-.461-2.305c.193-.028.387-.055.583-.076zm19.176 11.97h-4v-4h-2v4h-18v-4h-2v4h-4c.019-5.248 3.489-9.807 8.297-11.417l1.001 5.005 5.702-3.422 5.702 3.422 1.001-5.005c4.808 1.61 8.278 6.169 8.297 11.417zm-12.223-13.507-2.777 1.389-2.777-1.389.175-.524c.198.018.399.031.602.031h4c.203 0 .404-.013.603-.031zm-.777-2.493h-4c-2.757 0-5-2.243-5-5v-9h14v9c0 2.757-2.243 5-5 5zm7-6v-4c1.103 0 2 .897 2 2s-.897 2-2 2zm4-2c0-.876-.291-1.68-.77-2.339.466-1.163.728-2.409.757-3.661h.013v-.236-.764-4c0-4.963-4.037-9-9-9h-1v-14h10v6c0 1.103.897 2 2 2h10c1.103 0 2-.897 2-2v-6h10v10h-3c-2.757 0-5 2.243-5 5v7h-4v2h4v2h-10v2h10v2h-10v2h10v2zm28 18c0 3.309-2.691 6-6 6s-6-2.691-6-6c0-2.744 1.892-5.105 4.489-5.784l.169.338c.447.891 1.345 1.446 2.342 1.446.864 0 1.635-.434 2.121-1.126.419.255.791.567 1.13.908l-4.289 4.766-2.255-2.255-1.414 1.414 3.745 3.745 5.397-5.996c.365.78.565 1.645.565 2.544z"/><path d="m37 25h4v2h-4z"/><path d="m43 43h2v2h-2z"/><path d="m39 43h2v2h-2z"/><path d="m35 43h2v2h-2z"/></g></g></svg>