<svg id="Layer_1" enable-background="new 0 0 512 512" height="512" viewBox="0 0 512 512" width="512" xmlns="http://www.w3.org/2000/svg"><g><path d="m437.02 74.98c-48.352-48.352-112.64-74.98-181.02-74.98s-132.668 26.628-181.02 74.98-74.98 112.64-74.98 181.02 26.629 132.667 74.98 181.02 112.64 74.98 181.02 74.98 132.668-26.628 181.02-74.98 74.98-112.64 74.98-181.02-26.629-132.667-74.98-181.02zm-181.02 165.02c39.701 0 72 32.299 72 72 0 32.877-22.157 60.659-52.318 69.243-2.167.617-3.682 2.566-3.682 4.819v13.486c0 8.616-6.621 16.029-15.227 16.434-9.189.432-16.773-6.889-16.773-15.982v-13.941c0-2.247-1.506-4.197-3.667-4.812-30.032-8.54-52.132-36.113-52.332-68.8-.053-8.725 6.807-16.19 15.529-16.44 9.051-.26 16.47 7 16.47 15.993 0 23.002 19.517 41.532 42.859 39.9 19.704-1.377 35.665-17.339 37.041-37.043 1.63-23.343-16.899-42.857-39.9-42.857-39.701 0-72-32.299-72-72 0-32.877 22.157-60.659 52.318-69.243 2.167-.617 3.682-2.566 3.682-4.819v-13.486c0-8.616 6.621-16.029 15.227-16.434 9.189-.432 16.773 6.889 16.773 15.982v13.941c0 2.247 1.506 4.197 3.667 4.812 30.032 8.54 52.132 36.113 52.332 68.8.053 8.725-6.807 16.19-15.529 16.44-9.051.26-16.47-7-16.47-15.993 0-23.002-19.517-41.532-42.859-39.9-19.704 1.377-35.665 17.339-37.041 37.043-1.63 23.343 16.899 42.857 39.9 42.857z"/></g></svg>