<svg height="465pt" viewBox="0 -47 465.97 465" width="465pt" xmlns="http://www.w3.org/2000/svg"><path d="m186.960938 66.484375c31.871093-.003906 57.707031 25.832031 57.710937 57.703125 0 31.871094-25.835937 57.707031-57.707031 57.707031s-57.707032-25.839843-57.703125-57.710937c0-31.867188 25.832031-57.699219 57.699219-57.699219zm0 0" fill="#fedb41"/><path d="m455.96875 279.144531v41.339844c0 22.09375-17.90625 40-40 40h-365.96875c-22.089844 0-40-17.90625-40-40v-27.308594l85.238281-56.769531c13.441407-8.84375 30.871094-8.777344 44.242188.167969l50.917969 34.070312c17.808593 11.921875 41.847656 7.6875 54.511718-9.597656l68.109375-92.980469c7.609375-10.386718 19.75-16.476562 32.621094-16.363281 12.875.113281 24.90625 6.414063 32.328125 16.933594zm0 0" fill="#00acea"/><path d="m455.96875 50.484375v228.660156l-78-110.507812c-7.421875-10.519531-19.453125-16.820313-32.328125-16.933594-12.871094-.113281-25.011719 5.976563-32.621094 16.363281l-68.109375 92.980469c-12.664062 17.285156-36.703125 21.519531-54.511718 9.597656l-50.917969-34.070312c-13.371094-8.945313-30.800781-9.011719-44.242188-.167969l-85.238281 56.769531v-242.691406c0-22.089844 17.910156-40 40-40h365.96875c22.09375 0 40 17.910156 40 40zm-211.296875 73.699219c-.003906-31.867188-25.839844-57.699219-57.707031-57.699219-31.871094 0-57.703125 25.835937-57.703125 57.703125-.003907 31.867188 25.828125 57.703125 57.699219 57.707031 31.875.007813 57.714843-25.835937 57.710937-57.710937zm0 0" fill="#00efd1"/><g fill="#083863"><path d="m186.960938 191.894531c37.390624.003907 67.707031-30.308593 67.710937-67.699219 0-37.394531-30.308594-67.707031-67.703125-67.710937-37.390625-.003906-67.707031 30.308594-67.707031 67.699219.039062 37.375 30.324219 67.664062 67.699219 67.710937zm0-115.410156c26.347656-.003906 47.707031 21.355469 47.710937 47.703125 0 26.347656-21.359375 47.707031-47.707031 47.707031s-47.707032-21.363281-47.703125-47.710937c.03125-26.328125 21.367187-47.667969 47.699219-47.699219zm0 0"/><path d="m415.96875.484375h-365.96875c-27.601562.03125-49.96875 22.398437-50 50v270c.03125 27.601563 22.398438 49.96875 50 50h365.96875c27.601562-.03125 49.96875-22.398437 50-50v-270c-.03125-27.601563-22.398438-49.96875-50-50zm-365.96875 20h365.96875c16.5625.019531 29.984375 13.441406 30 30v197.152344l-59.828125-84.769531c-9.28125-13.144532-24.320313-21.023438-40.414063-21.164063-16.089843-.140625-31.265624 7.46875-40.773437 20.453125l-68.113281 92.980469c-9.476563 13-27.53125 16.179687-40.878906 7.203125l-50.917969-34.070313c-16.726563-11.214843-38.550781-11.289062-55.347657-.183593l-69.699218 46.417968v-224.019531c.019531-16.5625 13.441406-29.984375 30.003906-30zm365.96875 330h-365.96875c-16.5625-.019531-29.980469-13.4375-30-30v-21.953125l80.734375-53.769531c10.078125-6.652344 23.160156-6.601563 33.1875.125l50.917969 34.066406c22.246094 14.964844 52.339844 9.664063 68.136718-12l68.113282-92.980469c5.707031-7.789062 14.8125-12.355468 24.464844-12.269531 9.65625.085937 18.679687 4.8125 24.246093 12.699219l76.171875 107.917968v38.164063c-.019531 16.5625-13.441406 29.984375-30.003906 30zm0 0"/></g></svg>