<?xml version="1.0"?>
<svg xmlns="http://www.w3.org/2000/svg" xmlns:xlink="http://www.w3.org/1999/xlink" xmlns:svgjs="http://svgjs.com/svgjs" version="1.1" width="512" height="512" x="0" y="0" viewBox="0 0 512 512" style="enable-background:new 0 0 512 512" xml:space="preserve" class=""><g>
<g xmlns="http://www.w3.org/2000/svg">
	<g>
		<path d="M50.76,384.703c6.674,24.47,29.083,42.516,55.638,42.516c26.557,0,48.965-18.047,55.64-42.516H50.76z" fill="#ffffff" data-original="#000000" style=""/>
	</g>
</g>
<g xmlns="http://www.w3.org/2000/svg">
	<g>
		<path d="M378.555,384.703c6.674,24.47,29.082,42.516,55.638,42.516s48.964-18.047,55.638-42.516H378.555z" fill="#ffffff" data-original="#000000" style=""/>
	</g>
</g>
<g xmlns="http://www.w3.org/2000/svg">
	<g>
		<path d="M472.326,241.168l-65.424-46.356l0.07-38.734c3.079,2.314,6.893,3.703,11.042,3.703c10.17,0,18.415-8.245,18.415-18.415    v-38.17c0-10.17-8.245-18.415-18.415-18.415c-5.441,0-10.315,2.374-13.686,6.126c-3.575-2.652-7.987-4.239-12.78-4.239    c-10.18,0-19.532,3.278-27.12,8.797l-72.688,21.736c-9.744,2.913-15.279,13.174-12.366,22.918    c2.387,7.985,9.707,13.144,17.635,13.144c1.747,0,3.523-0.25,5.284-0.777l43.261-12.936l-0.8,87.898l-11.745,33.441    c-15.748,37.727-52.625,62.294-93.507,62.295h-29.725c-6.712-29.401-1.472-60.664,15.217-86.527H60.216    C24.979,250.401,0,284.648,0,324.75v26.041c0,6.756,3.849,12.602,9.468,15.497h328.414v0c4.654-49.05,46.064-87.553,96.311-87.553    c19.248,0,37.187,5.673,52.275,15.401l0.496-0.314C495.181,275.019,489.069,253.031,472.326,241.168z" fill="#ffffff" data-original="#000000" style=""/>
	</g>
</g>
<g xmlns="http://www.w3.org/2000/svg">
	<g>
		<path d="M229.478,185.969H115.652c-10.17,0-18.415,8.245-18.415,18.415c0,5.532,2.452,10.48,6.313,13.857h138.029    c3.862-3.375,6.314-8.325,6.314-13.857C247.893,194.214,239.648,185.969,229.478,185.969z" fill="#ffffff" data-original="#000000" style=""/>
	</g>
</g>
<g xmlns="http://www.w3.org/2000/svg">
	<g>
		<path d="M434.193,297.15c-40.085,0-73.237,30.26-77.807,69.138H512C507.429,327.411,474.278,297.15,434.193,297.15z" fill="#ffffff" data-original="#000000" style=""/>
	</g>
</g>
<g xmlns="http://www.w3.org/2000/svg">
</g>
<g xmlns="http://www.w3.org/2000/svg">
</g>
<g xmlns="http://www.w3.org/2000/svg">
</g>
<g xmlns="http://www.w3.org/2000/svg">
</g>
<g xmlns="http://www.w3.org/2000/svg">
</g>
<g xmlns="http://www.w3.org/2000/svg">
</g>
<g xmlns="http://www.w3.org/2000/svg">
</g>
<g xmlns="http://www.w3.org/2000/svg">
</g>
<g xmlns="http://www.w3.org/2000/svg">
</g>
<g xmlns="http://www.w3.org/2000/svg">
</g>
<g xmlns="http://www.w3.org/2000/svg">
</g>
<g xmlns="http://www.w3.org/2000/svg">
</g>
<g xmlns="http://www.w3.org/2000/svg">
</g>
<g xmlns="http://www.w3.org/2000/svg">
</g>
<g xmlns="http://www.w3.org/2000/svg">
</g>
</g></svg>
