<?xml version="1.0" encoding="utf-8"?>
<!-- Generator: Adobe Illustrator 22.1.0, SVG Export Plug-In . SVG Version: 6.00 Build 0)  -->
<svg xmlns="http://www.w3.org/2000/svg" xmlns:xlink="http://www.w3.org/1999/xlink" version="1.1" id="Layer_1" x="0px" y="0px" viewBox="0 0 256 256" style="enable-background:new 0 0 256 256;" xml:space="preserve" width="512" height="512">
<style type="text/css">
	.st0{fill:#FFA730;}
	.st1{fill:#E58D23;}
	.st2{fill:#FFB74B;}
	.st3{fill:#BF6C0D;}
	.st4{fill:#A56021;}
	.st5{fill:#CCC033;}
	.st6{fill:#99AF17;}
	.st7{fill:#EACF32;}
	.st8{fill:#FCDA4F;}
	.st9{fill:#FFDF74;}
	.st10{fill:#FCE575;}
	.st11{fill:#FFD551;}
	.st12{fill:#FFC34C;}
	.st13{fill:#F9BB32;}
	.st14{fill:#FFF4C1;}
	.st15{fill:#DB9C2E;}
	.st16{fill:#8C4C17;}
	.st17{fill:#FF624B;}
	.st18{fill:#FF4B34;}
	.st19{fill:#FF9079;}
	.st20{fill:#FFD59A;}
	.st21{fill:#FFEACF;}
	.st22{fill:#FCF9DE;}
</style>
<g>
	<g>
		<g>
			<path class="st13" d="M226.965,217.353H25.083c-7.764,0-14.059-6.294-14.059-14.059V21.412c0-7.764,6.294-14.059,14.059-14.059     h201.883c7.764,0,14.059,6.294,14.059,14.059v181.883C241.024,211.059,234.73,217.353,226.965,217.353z"/>
		</g>
	</g>
	<g>
		<g>
			<g>
				<path class="st4" d="M220.853,179.466h-3.843v17.705c0,0.627-0.627,1.135-1.399,1.135h-12.42c-0.773,0-1.399-0.508-1.399-1.135      v-17.705h-3.887c-0.456,0-0.695-0.438-0.388-0.712l11.612-10.358c0.064-0.057,0.155-0.09,0.251-0.09s0.187,0.033,0.251,0.09      l11.612,10.358C221.548,179.028,221.309,179.466,220.853,179.466z"/>
			</g>
		</g>
	</g>
	<g>
		<g>
			<path class="st12" d="M233.024,124.883c-1.657,0-3-1.343-3-3v-100c0-1.657,1.343-3,3-3s3,1.343,3,3v100     C236.024,123.54,234.681,124.883,233.024,124.883z"/>
		</g>
	</g>
	<g>
		<g>
			<path class="st4" d="M154.253,182.256h-48.045c-2.209,0-4-1.791-4-4s1.791-4,4-4h48.045c2.209,0,4,1.791,4,4     S156.462,182.256,154.253,182.256z"/>
		</g>
	</g>
	<g>
		<g>
			<path class="st4" d="M154.253,198.096h-48.045c-2.209,0-4-1.791-4-4s1.791-4,4-4h48.045c2.209,0,4,1.791,4,4     S156.462,198.096,154.253,198.096z"/>
		</g>
	</g>
	<g>
		<g>
			<path class="st4" d="M63.708,198.866H22.959c-1.824,0-3.302-1.478-3.302-3.302v-19.185c0-1.824,1.478-3.302,3.302-3.302h40.749     c1.824,0,3.302,1.478,3.302,3.302v19.185C67.01,197.388,65.531,198.866,63.708,198.866z"/>
		</g>
	</g>
	<g>
		<g>
			<circle class="st15" cx="57.43" cy="21.883" r="9"/>
		</g>
	</g>
	<g>
		<g>
			<path class="st15" d="M39.024,203.295V21.412c0-7.764,6.294-14.059,14.059-14.059h-28c-7.764,0-14.059,6.294-14.059,14.059     v181.883c0,7.764,6.294,14.059,14.059,14.059h28C45.318,217.353,39.024,211.059,39.024,203.295z"/>
		</g>
	</g>
	<g>
		<g>
			<path class="st16" d="M22.959,173.077c-1.824,0-3.302,1.478-3.302,3.302v19.185c0,1.824,1.478,3.302,3.302,3.302h16.065v-25.789     H22.959z"/>
		</g>
	</g>
	<g>
		<g>
			<path class="st9" d="M159.403,100.419V7.353H98.256v93.066c5.087,0,5.087,9.307,10.174,9.307c5.093,0,5.093-9.307,10.185-9.307     c5.093,0,5.093,9.307,10.187,9.307c5.095,0,5.095-9.307,10.189-9.307c5.103,0,5.103,9.307,10.206,9.307     S154.3,100.419,159.403,100.419z"/>
		</g>
	</g>
	<g>
		<g>
			<path class="st14" d="M151.403,98.559c-1.657,0-3-1.343-3-3V15.354c0-1.657,1.343-3,3-3s3,1.343,3,3v80.205     C154.403,97.216,153.06,98.559,151.403,98.559z"/>
		</g>
	</g>
	<g>
		<g>
			<path class="st0" d="M194.976,104.647c-4.804,0-8.699,3.659-8.699,8.173v6.767c0,0.776,0.67,1.405,1.496,1.405h14.407     c0.826,0,1.496-0.629,1.496-1.405v-6.767C203.675,108.306,199.78,104.647,194.976,104.647z M194.976,116.212     c-2.761,0-5-2.103-5-4.697c0-2.594,2.239-4.697,5-4.697s5,2.103,5,4.697C199.976,114.109,197.737,116.212,194.976,116.212z"/>
		</g>
	</g>
	<g>
		<g>
			<path class="st3" d="M240.366,248.646h-90.78c-2.546,0-4.61-2.064-4.61-4.61V124.955c0-2.546,2.064-4.61,4.61-4.61h90.78     c2.546,0,4.61,2.064,4.61,4.61v119.081C244.976,246.583,242.912,248.646,240.366,248.646z"/>
		</g>
	</g>
	<g>
		<g>
			<path class="st1" d="M239.976,246.949c-1.657,0-3-1.343-3-3v-59.556c0-1.657,1.343-3,3-3s3,1.343,3,3v59.556     C242.976,245.606,241.633,246.949,239.976,246.949z"/>
		</g>
	</g>
	<g>
		<g>
			<path class="st4" d="M162.476,244.178V124.813c0-2.468,2.129-4.468,4.756-4.468h-17.5c-2.627,0-4.756,2-4.756,4.468v119.365     c0,2.468,2.129,4.468,4.756,4.468h17.5C164.605,248.647,162.476,246.646,162.476,244.178z"/>
		</g>
	</g>
	<g>
		<g>
			<path class="st14" d="M153.905,236.822V132.17c0-1.909,1.548-3.457,3.457-3.457h75.228c1.909,0,3.457,1.548,3.457,3.457v104.651     c0,1.909-1.548,3.457-3.457,3.457h-75.228C155.453,240.279,153.905,238.731,153.905,236.822z"/>
		</g>
	</g>
	<g>
		<g>
			<path class="st10" d="M157.472,128.713c-1.97,0-3.567,1.5-3.567,3.351v104.864c0,1.851,1.597,3.351,3.567,3.351h5.004V128.713     H157.472z"/>
		</g>
	</g>
	<g>
		<g>
			<path class="st12" d="M171.703,162.661h-9.514c-1.157,0-2.095-0.938-2.095-2.095v-8.653c0-1.157,0.938-2.095,2.095-2.095h9.514     c1.157,0,2.095,0.938,2.095,2.095v8.653C173.798,161.723,172.86,162.661,171.703,162.661z"/>
		</g>
	</g>
	<g>
		<g>
			<path class="st4" d="M228.924,160.239h-48.274c-2.209,0-4-1.791-4-4s1.791-4,4-4h48.274c2.209,0,4,1.791,4,4     S231.133,160.239,228.924,160.239z"/>
		</g>
	</g>
	<g>
		<g>
			<path class="st12" d="M171.703,181.607h-9.514c-1.157,0-2.095-0.938-2.095-2.095v-8.653c0-1.157,0.938-2.095,2.095-2.095h9.514     c1.157,0,2.095,0.938,2.095,2.095v8.653C173.798,180.669,172.86,181.607,171.703,181.607z"/>
		</g>
	</g>
	<g>
		<g>
			<path class="st4" d="M228.924,179.186h-48.274c-2.209,0-4-1.791-4-4s1.791-4,4-4h48.274c2.209,0,4,1.791,4,4     S231.133,179.186,228.924,179.186z"/>
		</g>
	</g>
	<g>
		<g>
			<path class="st12" d="M171.703,200.26h-9.514c-1.157,0-2.095-0.938-2.095-2.095v-8.653c0-1.157,0.938-2.095,2.095-2.095h9.514     c1.157,0,2.095,0.938,2.095,2.095v8.653C173.798,199.322,172.86,200.26,171.703,200.26z"/>
		</g>
	</g>
	<g>
		<g>
			<path class="st4" d="M228.924,197.839h-48.274c-2.209,0-4-1.791-4-4s1.791-4,4-4h48.274c2.209,0,4,1.791,4,4     S231.133,197.839,228.924,197.839z"/>
		</g>
	</g>
	<g>
		<g>
			<path class="st0" d="M215.696,135.619h-41.441c-1.706,0-3.089-1.383-3.089-3.089V120.85c0-1.706,1.383-3.089,3.089-3.089h41.441     c1.706,0,3.089,1.383,3.089,3.089v11.679C218.786,134.236,217.402,135.619,215.696,135.619z"/>
		</g>
	</g>
	<g>
		<g>
			<path class="st2" d="M162.476,187.417h-0.221c-1.194,0-2.161,0.909-2.161,2.031v8.781c0,1.122,0.968,2.031,2.161,2.031h0.221     V187.417z"/>
		</g>
	</g>
	<g>
		<g>
			<path class="st2" d="M162.476,168.765h-0.221c-1.194,0-2.161,0.909-2.161,2.03v8.782c0,1.121,0.968,2.03,2.161,2.03h0.221     V168.765z"/>
		</g>
	</g>
	<g>
		<g>
			<path class="st2" d="M162.476,149.818h-0.221c-1.194,0-2.161,0.909-2.161,2.031v8.782c0,1.121,0.968,2.03,2.161,2.03h0.221     V149.818z"/>
		</g>
	</g>
	<g>
		<g>
			<path class="st1" d="M183.667,132.795v-12.211c0-1.559,1.513-2.824,3.38-2.824h-12.5c-1.867,0-3.38,1.264-3.38,2.824v12.211     c0,1.559,1.513,2.824,3.38,2.824h12.5C185.18,135.619,183.667,134.355,183.667,132.795z"/>
		</g>
	</g>
	<g>
		<g>
			<ellipse class="st1" cx="191.188" cy="128.713" rx="5.625" ry="5.284"/>
		</g>
	</g>
	<g>
		<g>
			<ellipse class="st10" cx="171.167" cy="233.23" rx="5.625" ry="5.284"/>
		</g>
	</g>
	<g>
		<g>
			<path class="st6" d="M167.232,198.477c-0.011,0-0.022,0-0.033,0c-0.644-0.011-1.244-0.331-1.611-0.86l-3.824-5.518     c-0.629-0.908-0.403-2.154,0.505-2.783c0.908-0.631,2.154-0.402,2.783,0.504l2.236,3.229l6.149-8.273     c0.659-0.885,1.913-1.07,2.798-0.412c0.887,0.659,1.071,1.912,0.412,2.799l-7.811,10.509     C168.459,198.178,167.864,198.477,167.232,198.477z"/>
		</g>
	</g>
	<g>
		<g>
			<path class="st6" d="M167.232,179.688c-0.011,0-0.022,0-0.033,0c-0.644-0.011-1.244-0.331-1.611-0.86l-3.824-5.518     c-0.629-0.908-0.403-2.154,0.505-2.783c0.908-0.63,2.154-0.402,2.783,0.504l2.236,3.229l6.149-8.273     c0.659-0.885,1.913-1.071,2.798-0.412c0.887,0.659,1.071,1.912,0.412,2.799l-7.811,10.509     C168.459,179.389,167.864,179.688,167.232,179.688z"/>
		</g>
	</g>
	<g>
		<g>
			<path class="st6" d="M167.232,160.898c-0.011,0-0.022,0-0.033,0c-0.644-0.011-1.244-0.331-1.611-0.86l-3.824-5.518     c-0.629-0.908-0.403-2.154,0.505-2.783c0.908-0.631,2.154-0.401,2.783,0.504l2.236,3.229l6.149-8.273     c0.659-0.886,1.913-1.071,2.798-0.412c0.887,0.659,1.071,1.912,0.412,2.799l-7.811,10.509     C168.459,160.6,167.864,160.898,167.232,160.898z"/>
		</g>
	</g>
	<g>
		<g>
			<path class="st12" d="M171.703,219.049h-9.514c-1.157,0-2.095-0.938-2.095-2.095v-8.653c0-1.157,0.938-2.095,2.095-2.095h9.514     c1.157,0,2.095,0.938,2.095,2.095v8.653C173.798,218.111,172.86,219.049,171.703,219.049z"/>
		</g>
	</g>
	<g>
		<g>
			<path class="st4" d="M228.924,216.628h-48.274c-2.209,0-4-1.791-4-4s1.791-4,4-4h48.274c2.209,0,4,1.791,4,4     S231.133,216.628,228.924,216.628z"/>
		</g>
	</g>
	<g>
		<g>
			<path class="st2" d="M162.476,206.206h-0.221c-1.194,0-2.161,0.909-2.161,2.031v8.781c0,1.122,0.968,2.031,2.161,2.031h0.221     V206.206z"/>
		</g>
	</g>
	<g>
		<g>
			<path class="st6" d="M167.232,217.266c-0.011,0-0.022,0-0.033,0c-0.644-0.011-1.244-0.331-1.611-0.861l-3.824-5.519     c-0.629-0.907-0.403-2.153,0.505-2.782c0.91-0.632,2.154-0.402,2.783,0.505l2.237,3.228l6.149-8.272     c0.659-0.886,1.913-1.07,2.798-0.412c0.887,0.659,1.071,1.912,0.412,2.799l-7.811,10.509     C168.459,216.967,167.864,217.266,167.232,217.266z"/>
		</g>
	</g>
</g>
</svg>
