<?xml version="1.0"?>
<svg xmlns="http://www.w3.org/2000/svg" xmlns:xlink="http://www.w3.org/1999/xlink" xmlns:svgjs="http://svgjs.com/svgjs" version="1.1" width="512" height="512" x="0" y="0" viewBox="0 0 484.373 484.373" style="enable-background:new 0 0 512 512" xml:space="preserve" class=""><g transform="matrix(-1,-2.449293598294706e-16,-2.449293598294706e-16,1,489.3720455169679,5.684341886080802e-14)">
<g xmlns="http://www.w3.org/2000/svg">
	<g>
		<path d="M473.61,119.808c0-0.512,0-0.512,0-1.024c-0.512-1.024-0.512-2.048-1.024-3.072V115.2    c-0.512-1.024-1.536-2.048-2.048-2.56l-0.512-0.512c-0.512-0.512-1.536-1.024-2.048-1.536l-0.512-0.512h-0.512l-0.512-0.512    L248.842,1.536c-4.096-2.048-9.216-2.048-13.824,0l-73.216,36.352l218.624,112.128l0.512,0.512c0.512,0,0.512,0.512,1.024,0.512    c0.512,0.512,0.512,1.024,1.024,1.536c0,0.512,0,0.512,0,1.024v0.512v118.784c0,2.048-1.024,3.584-2.56,4.608l-44.032,23.04    c-2.56,1.536-5.632,0.512-7.168-2.048c-0.512-0.512-0.512-1.536-0.512-2.56V179.712L107.53,65.536l-0.512-0.512l-88.576,44.032    l-0.512,0.512h-0.512l-0.512,0.512c-0.512,0.512-1.536,1.024-2.048,1.536l-0.512,0.512c-1.024,1.024-1.536,2.048-2.56,3.072v0.512    c-0.512,1.024-1.024,2.048-1.024,3.072c0,0.512,0,0.512,0,1.024c0,1.024-0.512,1.536-0.512,2.56v0.512v238.592    c0,5.632,3.072,11.264,8.704,13.824l215.552,107.52c3.072,1.536,6.656,2.048,10.24,1.024l1.024-0.512    c1.024,0,1.536-0.512,2.56-1.024l217.088-107.52c5.12-2.56,8.704-7.68,8.704-13.824V122.88v-0.512    C473.61,121.344,473.61,120.832,473.61,119.808z" fill="#ffffff" data-original="#000000" style="" class=""/>
	</g>
</g>
<g xmlns="http://www.w3.org/2000/svg">
</g>
<g xmlns="http://www.w3.org/2000/svg">
</g>
<g xmlns="http://www.w3.org/2000/svg">
</g>
<g xmlns="http://www.w3.org/2000/svg">
</g>
<g xmlns="http://www.w3.org/2000/svg">
</g>
<g xmlns="http://www.w3.org/2000/svg">
</g>
<g xmlns="http://www.w3.org/2000/svg">
</g>
<g xmlns="http://www.w3.org/2000/svg">
</g>
<g xmlns="http://www.w3.org/2000/svg">
</g>
<g xmlns="http://www.w3.org/2000/svg">
</g>
<g xmlns="http://www.w3.org/2000/svg">
</g>
<g xmlns="http://www.w3.org/2000/svg">
</g>
<g xmlns="http://www.w3.org/2000/svg">
</g>
<g xmlns="http://www.w3.org/2000/svg">
</g>
<g xmlns="http://www.w3.org/2000/svg">
</g>
</g></svg>
