<svg id="Capa_1" enable-background="new 0 0 512 512" height="512" viewBox="0 0 512 512" width="512" xmlns="http://www.w3.org/2000/svg" xmlns:xlink="http://www.w3.org/1999/xlink"><linearGradient id="SVGID_1_" gradientUnits="userSpaceOnUse" x1="168.225" x2="225.82" y1="314.199" y2="314.199"><stop offset="0" stop-color="#cc8241"/><stop offset="1" stop-color="#dea861"/></linearGradient><linearGradient id="SVGID_2_" gradientUnits="userSpaceOnUse" x1="100.582" x2="316.271" y1="57.996" y2="182.524"><stop offset="0" stop-color="#dea861"/><stop offset="1" stop-color="#ebcba0"/></linearGradient><linearGradient id="lg1"><stop offset="0" stop-color="#ab2c37"/><stop offset="1" stop-color="#ff959d"/></linearGradient><linearGradient id="SVGID_3_" gradientUnits="userSpaceOnUse" x1="403.169" x2="431.317" xlink:href="#lg1" y1="314.501" y2="265.747"/><linearGradient id="SVGID_4_" gradientUnits="userSpaceOnUse" x1="385" x2="307.338" y1="350.378" y2="484.893"><stop offset="0" stop-color="#ab2c37"/><stop offset=".1833" stop-color="#b53944"/><stop offset=".5224" stop-color="#d15b65"/><stop offset=".9768" stop-color="#fd929a"/><stop offset="1" stop-color="#ff959d"/></linearGradient><linearGradient id="SVGID_5_" gradientUnits="userSpaceOnUse" x1="445.488" x2="493.055" xlink:href="#lg1" y1="225.536" y2="143.148"/><g><g><path d="m426.943 377.621v-261.224l-419.272 17.98v261.224c-.001 5.986 2.961 11.971 8.885 15.392l166.091 95.893c11.813 6.82 26.366 6.82 38.179 0l197.232-113.872c5.924-3.421 8.885-9.407 8.885-15.393z" fill="url(#SVGID_1_)"/><path d="m16.557 118.987 197.231-113.872c11.813-6.82 26.366-6.82 38.178 0l166.091 95.893c11.847 6.84 11.847 23.94 0 30.78l-197.231 113.871c-11.813 6.82-26.366 6.82-38.178 0l-166.091-95.892c-11.848-6.84-11.848-23.94 0-30.78z" fill="url(#SVGID_2_)"/><path d="m80.508 82.064 211.836 122.304 56.193-32.443-211.837-122.303z" fill="#dea861"/><g fill="#cc8241"><path d="m114.093 62.657 211.836 122.304-11.007 6.355-211.836-122.304z"/><path d="m292.344 204.368v46.406l56.193-32.443v-46.406z"/></g></g><g><path d="m438.253 312.565-.302-.669 60.215-115.487-41.862-23.737c-6.674-5.045-17.494 1.203-24.168 13.954l-42.474 81.154-9.326-5.78-37.96-21.916-1.227-.928c-.868-.656-1.809-1.112-2.799-1.396l-.016-.01.003.007c-6.62-1.892-15.553 4.268-21.355 15.353-6.674 12.751-6.674 27.178 0 32.224l45.492 34.392-45.492 86.923c-6.674 12.751-6.674 27.178-.001 32.224h.001c.556.421 1.15.734 1.76 1.001l41.26 23.471 56.632-102.675 15.502 11.719c.576.435 1.192.756 1.824 1.027l.011.032 42.777 24.361z" fill="url(#SVGID_3_)"/><path d="m405.494 344.199-43.02-24.472-45.492 86.923c-6.674 12.751-6.674 27.178-.001 32.224h.001c.556.421 1.15.734 1.76 1.001l41.26 23.471z" fill="url(#SVGID_4_)"/><path d="m456.303 172.672c-6.674-5.045-17.494 1.203-24.168 13.954l-42.474 81.154 40.001 30.24 68.503-101.611z" fill="url(#SVGID_5_)"/><path d="m499.323 197.145c-6.674-5.045-17.494 1.202-24.168 13.953l-45.493 86.923-45.493-34.392c-6.674-5.045-17.494 1.202-24.168 13.953-6.674 12.751-6.674 27.178 0 32.224l45.493 34.393-45.493 86.923c-6.674 12.751-6.674 27.178 0 32.224 6.674 5.045 17.494-1.202 24.168-13.953l45.493-86.923 45.493 34.392c6.674 5.045 17.494-1.202 24.168-13.954v-.001c6.674-12.751 6.674-27.178 0-32.224l-45.493-34.392 45.493-86.923c6.674-12.751 6.674-27.178 0-32.223z" fill="#ff4757"/><path d="" fill="#ab2c37"/></g></g></svg>