<svg height="464pt" viewBox="0 0 464 464" width="464pt" xmlns="http://www.w3.org/2000/svg"><path d="m232 0v176s64-76.640625 64-112c0-35.347656-28.652344-64-64-64zm0 0" fill="#ff4764"/><path d="m168 64c0 35.359375 64 112 64 112v-176c-35.347656 0-64 28.652344-64 64zm0 0" fill="#ff3051"/><path d="m168 208-168 256h59.273438l134-256zm0 0" fill="#ffcd00"/><path d="m270.726562 208 134 256h59.273438l-168-256zm0 0" fill="#ffcd00"/><path d="m270.726562 208h-77.453124l-134 256h345.453124zm0 0" fill="#58595b"/><g fill="#a7a9ac"><path d="m224 232h16v16h-16zm0 0"/><path d="m224 208h16v8h-16zm0 0"/><path d="m224 264h16v24h-16zm0 0"/><path d="m224 304h16v32h-16zm0 0"/><path d="m224 360h16v40h-16zm0 0"/><path d="m224 424h16v40h-16zm0 0"/></g><path d="m208 56c0 13.253906 10.746094 24 24 24v-48c-13.253906 0-24 10.746094-24 24zm0 0" fill="#f1f2f2"/><path d="m232 32v48c13.253906 0 24-10.746094 24-24s-10.746094-24-24-24zm0 0" fill="#f9f9f9"/></svg>