<svg id="Capa_1" enable-background="new 0 0 512 512" height="512" viewBox="0 0 512 512" width="512" xmlns="http://www.w3.org/2000/svg"><g><path d="m480.36 512h-448.72l27.58-142.27 100.13-20.24h193.3l100.13 20.24z" fill="#4d5d80"/><path d="m480.36 512h-224.36v-162.51h96.65l100.13 20.24z" fill="#3c4467"/><path d="m343.842 421.75h59.658v30h-59.658z" fill="#ffc000"/><path d="m352.65 349.49-96.65 162.51-96.65-162.51 38.13-7.71h117.04z" fill="#3c4467"/><path d="m352.65 349.49-96.65 162.51v-170.22h58.52z" fill="#2d2d4d"/><path d="m314.52 341.78c-12.7 23.04-35.61 34.55-58.52 34.55s-45.82-11.51-58.52-34.55l5.35-56.98h106.34z" fill="#ffba95"/><path d="m314.52 341.78c-12.7 23.04-35.61 34.55-58.52 34.55v-91.53h53.17z" fill="#e3a07d"/><path d="m321.417 142.971h21.786c21.848 0 39.559 17.711 39.559 39.559 0 21.848-17.711 39.559-39.559 39.559h-21.786z" fill="#e3a07d"/><path d="m190.583 142.971h-21.786c-21.848 0-39.559 17.711-39.559 39.559 0 21.848 17.711 39.559 39.559 39.559h21.786z" fill="#ffba95"/><path d="m335.42 155.1v66.99c0 46.69-35.56 84.54-79.42 84.54-21.93 0-41.78-9.46-56.16-24.76-14.37-15.3-23.26-36.43-23.26-59.78v-66.99z" fill="#ffd9b2"/><path d="m335.42 155.1v66.99c0 46.69-35.56 84.54-79.42 84.54v-151.53z" fill="#ffba95"/><path d="m367.07 38.35-10.4 39.87-17.11 17.02-83.06 15.59-.5-.09-83.56-15.5-17.11-17.02-9.41-39.87 110.08-38.35z" fill="#ffe65b"/><path d="m367.07 38.35-10.4 39.87-17.11 17.02-83.06 15.59-.5-.09v-110.74z" fill="#ffc000"/><path d="m356.67 119.35c-5.68 27.8-21.53 41.49-40.19 41.49h-120.96c-18.66 0-34.51-13.69-40.19-41.49l17.11-24.11h167.12z" fill="#4d5d80"/><path d="m356.67 119.35c-5.68 27.8-21.53 41.49-40.19 41.49h-60.48v-65.6h83.56z" fill="#2d2d4d"/></g></svg>