<svg id="Capa_1" enable-background="new 0 0 512 512" height="512" viewBox="0 0 512 512" width="512" xmlns="http://www.w3.org/2000/svg"><g><g><g><g><g><g><g><circle cx="256" cy="256" fill="#d79b8c" r="256"/></g></g></g></g></g></g><path d="m512 256c0-3.689-.078-7.36-.233-11.012l-160.052-160.052-183.817 39.946 70.623 70.623-34.941 34.131 56.136 56.135-96.381 144.271 81.728 81.728c3.627.153 7.273.23 10.938.23 141.384 0 255.999-114.615 255.999-256z" fill="#a65d4e"/><g fill="#fff"><path d="m235.913 256-36.689 29.917c-12.98 10.583-20.512 26.443-20.512 43.191v12.59l77.409 1.303 77.168-1.303v-12.59c0-16.748-7.532-32.608-20.512-43.191l-36.69-29.917-20.087-2.429z"/><path d="m333.289 182.893v-80.977h-154.578v80.977c0 2.129.125 4.243.364 6.335h153.85c.239-2.092.364-4.206.364-6.335z"/></g><g fill="#e9edf5"><path d="m256.121 254.82v88.181l77.168-1.303v-12.59c0-16.748-7.532-32.608-20.512-43.191l-36.69-29.917z"/><path d="m333.289 182.893v-80.977h-77.168v87.312h76.804c.239-2.092.364-4.206.364-6.335z"/></g><path d="m266.694 341.698v-85.698h9.393l36.689-29.916c11.753-9.583 19.039-23.493 20.312-38.471h-154.176c1.272 14.978 8.558 28.887 20.312 38.471l36.689 29.916h9.393v85.698h-66.594v68.387h154.577v-68.387z" fill="#cdd2e1"/><path d="m266.694 341.698v-85.698h9.393l36.689-29.916c11.753-9.583 19.039-23.493 20.312-38.471h-76.968v222.472h77.168v-68.387z" fill="#afb4c8"/><g><g><g><path d="m332.215 76.052h-152.43c-14.283 0-25.863 11.579-25.863 25.863s11.579 25.863 25.863 25.863c10.087 0 18.819-5.779 23.083-14.202h106.265c4.264 8.424 12.996 14.202 23.083 14.202 14.284 0 25.863-11.579 25.863-25.863-.001-14.283-11.58-25.863-25.864-25.863z" fill="#ffce00"/></g></g><g><g><path d="m332.215 76.052h-76.095v37.523h53.012c4.264 8.424 12.996 14.202 23.083 14.202 14.283 0 25.863-11.579 25.863-25.863s-11.579-25.862-25.863-25.862z" fill="#fdba12"/></g></g><g><g><path d="m179.785 435.948h152.43c14.284 0 25.863-11.579 25.863-25.863s-11.579-25.863-25.863-25.863c-10.087 0-18.819 5.779-23.083 14.202h-106.264c-4.264-8.424-12.996-14.202-23.083-14.202-14.284 0-25.863 11.579-25.863 25.863 0 14.283 11.579 25.863 25.863 25.863z" fill="#ffce00"/></g></g><g><g><path d="m202.868 398.424c-4.264-8.424-12.996-14.202-23.083-14.202-14.283 0-25.863 11.579-25.863 25.863 0 14.283 11.579 25.863 25.863 25.863h76.336v-37.523h-53.253z" fill="#ffce00"/><path d="m332.215 384.222c-10.087 0-18.819 5.779-23.083 14.202h-53.012v37.523h76.095c14.283 0 25.863-11.579 25.863-25.863 0-14.283-11.579-25.862-25.863-25.862z" fill="#fdba12"/></g></g></g></g></svg>