<svg id="Capa_1" enable-background="new 0 0 512 512" height="512" viewBox="0 0 512 512" width="512" xmlns="http://www.w3.org/2000/svg"><g><g><path clip-rule="evenodd" d="m378.33 229.078h126.17v43.83c0 10.837-8.844 19.688-19.672 19.688h-45.383l-27.071 13.674-34.044-13.674z" fill="#ffe07d" fill-rule="evenodd"/></g><g><path clip-rule="evenodd" d="m378.33 292.596h61.115v28.114c0 6.752-5.528 12.255-12.246 12.255h-198.982c0-17.674 0-26.667 13.521-26.667l26.929-.028c16.951-.028 28.063-4.369 34.271-13.674z" fill="#6f6571" fill-rule="evenodd"/></g><g><path clip-rule="evenodd" d="m252.217 332.965h174.983c10.261 17.873 18.51 39.348 11.395 80.426-11.906-40.511-132.831-24.341-145.247 22.412h-133.427c-5.046-11.433-9.808-22.724-13.975-34.128h37.616c76.081-28.709 51.618-15.915 68.655-68.71z" fill="#ffe07d" fill-rule="evenodd"/></g><g><path clip-rule="evenodd" d="m241.417 223.149c2.608 13.731 6.151 27.263 10.12 38.781l38.464 15.07 42.89-15.071c-1.502-81.164-31.833-120.087-57.628-132.682-9.298-7.08-18.822-9.746-18.822-9.746s-12.529 20.044-13.181 20.044c-4.819 11.461-6.633 26.412-6.321 42.554z" fill="#eceaec" fill-rule="evenodd"/></g><g><path clip-rule="evenodd" d="m332.891 261.929h-81.354c-18.737 2.043-41.783 16.312-41.783 60.511v46.327h42.463v-35.802c0-17.674 0-26.667 13.521-26.667l26.929-.028c16.951-.028 28.063-4.369 34.271-13.674 4.79-7.177 6.633-17.305 5.953-30.667z" fill="#ff8086" fill-rule="evenodd"/></g><g><path clip-rule="evenodd" d="m332.891 261.929c-1.502-81.164-31.833-120.087-57.628-132.682-3.827 2.695-8.079 4.908-12.756 6.553 22.847 17.277 45.751 55.887 47.055 126.129z" fill="#dad8db" fill-rule="evenodd"/></g><g><path clip-rule="evenodd" d="m332.891 261.929h-23.329c.68 13.362-1.162 23.49-5.953 30.667-3.912 5.872-9.808 10.837-17.887 13.674h6.945c16.951-.028 28.063-4.369 34.271-13.674 4.79-7.177 6.633-17.305 5.953-30.667z" fill="#f76672" fill-rule="evenodd"/></g><g><path clip-rule="evenodd" d="m398.002 165.474h86.825c10.828 0 19.672 8.851 19.672 19.688v32.568h-126.169v-32.568c0-10.837 8.844-19.688 19.672-19.688z" fill="#ffe07d" fill-rule="evenodd"/></g><g><path clip-rule="evenodd" d="m378.33 207.914h126.17v30.951h-126.17z" fill="#ff8086" fill-rule="evenodd"/></g><g><path clip-rule="evenodd" d="m478.166 207.914h16.157 10.177v-22.752c0-7.404-4.139-13.872-10.176-17.22-2.835-1.56-6.066-2.468-9.496-2.468h-26.334c10.828 0 19.672 8.851 19.672 19.688z" fill="#ffc269" fill-rule="evenodd"/></g><g><path clip-rule="evenodd" d="m478.166 238.865h16.158 10.176v-9.787-11.348-9.816h-10.176-16.158v9.816 11.348z" fill="#f76672" fill-rule="evenodd"/></g><g><path clip-rule="evenodd" d="m478.166 238.865v34.043c0 10.837-8.844 19.688-19.672 19.688h26.334c3.43 0 6.661-.879 9.496-2.44 6.038-3.376 10.176-9.844 10.176-17.248v-34.043h-10.176z" fill="#ffc269" fill-rule="evenodd"/></g><g><path clip-rule="evenodd" d="m293.347 435.804c0-41.958 33.25-75.377 74.268-75.377 33.364 0 61.597 22.128 70.98 52.965 1.928 6.326 3.061 13.05 3.26 20.029.085 2.723-1.786 2.383-4.337 2.383-48.048 0-96.123-.029-144.171 0z" fill="#ff8086" fill-rule="evenodd"/></g><g><path clip-rule="evenodd" d="m312.028 435.804h113.046c-1.616 30.468-26.306 54.696-56.523 54.696-30.218-.001-54.908-24.228-56.523-54.696z" fill="#6f6571" fill-rule="evenodd"/></g><g><path clip-rule="evenodd" d="m24.963 423.747 97.257 22.383c-6.18 26.866-32.967 43.66-59.811 37.476-26.873-6.185-43.625-32.994-37.446-59.859z" fill="#6f6571" fill-rule="evenodd"/></g><g><path clip-rule="evenodd" d="m17.678 396.484c13.748-20 37.616-31.603 62.561-29.107 43.994 9.305 58.309 35.603 61.172 68.398-.057 4.454-.539 8.936-1.502 13.419-.283 1.248-1.106.738-2.466.426l-15.222-3.489-97.257-22.383-7.285-1.674-10.176-2.355c1.955-8.568 5.47-16.398 10.175-23.235z" fill="#eceaec" fill-rule="evenodd"/></g><g><path clip-rule="evenodd" d="m80.154 367.264 39.288-135.945 17.688-7.915 19.786 7.915c-25.994 72.058-18.737 122.356-1.191 170.357 4.195 11.404 8.957 22.695 13.975 34.128h-28.261z" fill="#ff8086" fill-rule="evenodd"/></g><g><path clip-rule="evenodd" d="m201.817 78.892 46.091-9.816c4.677.426 18.057 11.66 18.057 18.695l-9.808 49.873c-4.082 1.22-8.419 1.901-12.898 1.901-24.548 0-44.447-19.943-44.447-44.511 0-5.703 1.049-11.15 3.005-16.142z" fill="#ffece4" fill-rule="evenodd"/></g><g><path clip-rule="evenodd" d="m186.935 78.892c0-31.717 25.115-57.391 56.126-57.391s56.126 25.674 56.126 57.391c0 20.936-8.504 39.547-23.924 50.355-5.499 3.887-11.906 6.752-19.105 8.397v-49.873c0-7.036-3.572-8.454-8.249-8.88h-46.091-14.883z" fill="#ff8086" fill-rule="evenodd"/></g><g><path clip-rule="evenodd" d="m213.694 29.983c8.532-5.39 18.595-8.482 29.367-8.482 31.011 0 56.126 25.674 56.126 57.391 0 20.936-8.504 39.547-23.924 50.355-3.912 2.752-8.249 4.993-13.011 6.638 11.395-11.546 17.575-28.114 17.575-46.384 0-33.135-26.277-60.001-58.677-60.001-2.524.001-5.018.143-7.456.483z" fill="#f76672" fill-rule="evenodd"/></g><g><path clip-rule="evenodd" d="m209.754 368.767h42.463v26.752c0 5.731-3.118 6.156-7.71 6.156h-60.945c-1.219-26.837 15.023-32.908 26.192-32.908z" fill="#6f6571" fill-rule="evenodd"/></g><g><path clip-rule="evenodd" d="m155.725 401.676c-17.546-48.001-24.803-98.299 1.191-170.357h-14.57c-.057 0-.113 0-.17 0h-5.244c-25.994 72.058-18.765 122.356-1.191 170.357 4.167 11.404 8.929 22.695 13.975 34.128h10.205 9.78c-5.018-11.433-9.78-22.724-13.976-34.128z" fill="#f76672" fill-rule="evenodd"/></g><g><path clip-rule="evenodd" d="m141.41 435.775-61.172-68.398c-6.321-.624-12.586-.369-18.624.738l58.791 65.731c-.057 3.83-.425 7.716-1.162 11.603l2.976.681 15.222 3.489c1.361.312 2.183.823 2.466-.426.965-4.482 1.447-8.964 1.503-13.418z" fill="#dad8db" fill-rule="evenodd"/></g><g><path clip-rule="evenodd" d="m427.199 332.965h-174.982v15.404h143.773c11.707 0 17.263 5.05 21.827 15.291 3.94 8.88 4.025 11.773 5.811 22.497 6.718 7.801 11.877 17.05 14.967 27.234 7.114-41.078-1.134-62.553-11.396-80.426z" fill="#ffc269" fill-rule="evenodd"/></g><g><path clip-rule="evenodd" d="m423.628 386.158c-13.606-15.802-33.647-25.731-56.013-25.731-5.613 0-11.055.624-16.299 1.787 33.477 7.575 56.891 37.135 57.912 71.207.057 1.872-.794 2.298-2.154 2.383h18 12.444c2.551 0 4.422.34 4.337-2.383-.198-6.979-1.332-13.702-3.26-20.029-.057-.199-.113-.369-.17-.539 0 0 0 0 0-.028-3.119-9.958-8.193-19.008-14.797-26.667z" fill="#f76672" fill-rule="evenodd"/></g><g><path clip-rule="evenodd" d="m119.243 445.449-94.28-21.702c-1.049 4.454-1.417 8.936-1.247 13.305l74.835 17.22 2.948.681c-2.778 12.199-9.836 22.326-19.219 29.163 19.134-3.376 35.32-17.844 39.94-37.986z" fill="#5d5360" fill-rule="evenodd"/></g><g><path clip-rule="evenodd" d="m407.073 435.804h-95.046c.312 5.957 1.531 11.688 3.487 17.05h66.217 18c-.709 13.333-5.811 25.447-13.861 34.894 21.855-7.177 37.928-27.575 39.203-51.944z" fill="#5d5360" fill-rule="evenodd"/></g><g><path clip-rule="evenodd" d="m439.445 320.71v-28.114h-38.409v28.114c0 6.752-5.528 12.255-12.246 12.255h38.409c6.718 0 12.246-5.503 12.246-12.255z" fill="#5d5360" fill-rule="evenodd"/></g><g><path clip-rule="evenodd" d="m199.039 90.268h37.871c4.677.426 8.249 1.872 8.249 8.908v40.313c3.798-.17 7.483-.794 10.998-1.844v-49.874c0-7.036-3.572-8.454-8.249-8.88h-46.091c-1.389 3.575-2.353 7.405-2.778 11.377z" fill="#ffddce" fill-rule="evenodd"/></g><g><path clip-rule="evenodd" d="m111.25 188.51 53.036 17.532c2.608 2.326-.34 26.043-2.098 25.277h-42.746-18.907v-39.036c0-7.688 3.997-5.986 10.715-3.773z" fill="#ffe07d" fill-rule="evenodd"/></g><g><path clip-rule="evenodd" d="m189.004 231.319h-4.45-22.365c-14.4 0-14.825-23.887 2.098-25.277l24.718-1.986 6.633 14.043z" fill="#ffece4" fill-rule="evenodd"/></g><g><path clip-rule="evenodd" d="m236.938 182.098 8.872-7.631c22.224-19.149 50.315 13.163 20.608 32.454l-25.002 16.227-12.586 8.17h-39.827v-27.263l24.746-2.014z" fill="#ff8086" fill-rule="evenodd"/></g><g><path clip-rule="evenodd" d="m189.004 231.319v-13.22h-5.301-2.863-4.479-22.365c-.85 0-1.644-.057-2.409-.227-.822 6.582 2.891 13.447 10.602 13.447h22.365z" fill="#ffddce" fill-rule="evenodd"/></g><g><path clip-rule="evenodd" d="m266.418 206.921c17.972-11.688 14.797-28.114 4.564-35.036.822 7.092-2.551 15.234-12.756 21.844l-19.474 12.624-5.499 3.603-12.586 8.142h-31.663v13.22h39.827l12.586-8.17z" fill="#f76672" fill-rule="evenodd"/></g><g><path clip-rule="evenodd" d="m164.286 206.042-21.345-7.036c-7.143 7.66-10.602 22.582-6.009 32.312h19.984 5.272c-7.71 0-11.424-6.865-10.602-13.447.738-5.701 4.848-11.177 12.7-11.829z" fill="#ffc269" fill-rule="evenodd"/></g><path d="m484.827 157.974h-86.825c-14.983 0-27.173 12.196-27.173 27.188v99.934h-32.476c1.805-6.561 2.474-14.3 2.035-23.306v-.001c-.705-38.059-7.611-70.135-20.528-95.337-10.03-19.567-21.735-31.298-31.779-38.311 11.789-12.121 18.605-29.364 18.605-49.251 0-35.781-28.543-64.89-63.626-64.89s-63.626 29.109-63.626 64.89c0 4.143 3.358 7.5 7.5 7.5h5.096c-.469 2.83-.719 5.714-.719 8.643 0 25.216 18.018 46.291 41.84 51.014-2.497 9.272-3.738 20.205-3.733 32.625l-18.706 16.089-45.515 3.681-52.503-17.356c-4.812-1.6-10.266-3.408-14.998.004-4.663 3.365-4.663 9.256-4.663 11.191v39.035c0 4.143 3.358 7.5 7.5 7.5h8.929l-13.695 47.324c-1.151 3.978 1.141 8.138 5.12 9.289 3.981 1.157 8.138-1.141 9.29-5.119l14.902-51.494h21.322c-26.52 80.872-11.388 134.854 11.871 189.485h-13.482l-56.153-62.786 11.874-41.02c1.152-3.979-1.14-8.138-5.119-9.289s-8.138 1.141-9.29 5.119l-11.357 39.237c-35.126-.586-66.546 23.632-74.553 58.475-.927 4.036 1.592 8.06 5.627 8.988l10.647 2.45c-2.72 28.252 15.885 54.907 44.259 61.438 4.309.993 8.655 1.483 12.971 1.483 10.644 0 21.101-2.984 30.35-8.781 10.855-6.802 18.943-16.802 23.32-28.62l8.401 1.933c2.503.579 4.877.872 7.249-.405 2.207-1.188 3.674-3.333 4.224-5.754.528-2.455.93-4.95 1.209-7.468h156.858c5.016 31.187 31.551 54.696 63.242 54.696s58.227-23.509 63.243-54.696h5.724l.662.007c.229.003.474.006.732.006 2.145 0 5.243-.238 7.787-2.826 1.273-1.295 2.767-3.612 2.652-7.293-.211-7.043-1.268-13.848-3.072-20.316 5.974-36.268.226-58.357-8.295-75.644 5.387-3.531 8.959-9.615 8.959-16.527v-20.613h37.883c14.983 0 27.173-12.196 27.173-27.188v-87.746c.003-14.991-12.186-27.187-27.17-27.187zm-388.746 312.933c-9.601 6.017-20.961 7.93-31.989 5.391h-.001c-20.298-4.672-33.84-23.285-32.853-43.411l81.353 18.724c-3.366 7.925-9.061 14.628-16.51 19.296zm37.528-29.866-116.665-26.846c9.003-24.654 33.231-40.974 59.714-39.57l57.151 63.901c-.05.843-.116 1.681-.2 2.515zm113.285-130.695c-2.177 5.742-2.177 12.821-2.177 22.62v28.302h-27.463v-38.828c0-43.898 23.958-51.721 34.71-53.012h73.529c-.296 9.963-2.544 17.045-6.812 21.54-4.974 5.238-13.485 7.79-26.021 7.802l-26.921.028c-9.6.001-15.94 3.885-18.845 11.548zm-2.177 65.921v17.908c-.068 0-.138 0-.21 0h-53.273c.599-5.554 2.329-9.852 5.17-12.826 4.226-4.422 10.178-5.082 13.35-5.082zm80.445-121.838h-68.207c-2.739-8.619-5.181-18.057-7.189-27.757l20.737-13.46c11.32-7.351 17.209-17.738 16.157-28.499-.932-9.539-7.417-18.06-16.521-21.707-8.314-3.33-17.263-2.284-25.172 2.773.652-7.174 1.866-13.578 3.622-19.014 3.197-.33 6.372-.955 9.49-1.872 6.347-1.474 12.212-3.823 17.507-6.938 14.445 8.63 46.215 36.622 49.576 116.474zm-130.179-183.038c3.537-23.964 23.749-42.39 48.077-42.39 26.812 0 48.626 22.381 48.626 49.89 0 22.374-10.729 40.407-28.029 48.343v-39.463c0-6.833-2.615-15.215-15.069-16.349-.226-.021-.453-.031-.68-.031zm11.329 23.643c0-2.96.337-5.851 1-8.643h40.228c.463.05.801.104 1.043.153.039.278.073.678.073 1.227v43.876c-1.787.263-3.585.396-5.382.397-.017 0-.034 0-.05 0-20.356-.019-36.912-16.614-36.912-37.01zm-9.723 115.92 17.764-1.437c1.583-.127 3.084-.754 4.289-1.789l32.06-27.575.005-.005c3.1-2.671 6.409-4.041 9.631-4.041 1.434 0 2.851.272 4.224.822 3.963 1.587 6.777 5.215 7.171 9.241.495 5.067-2.843 10.203-9.396 14.459l-35.725 23.188h-30.021v-12.863zm-31.696 2.564 16.696-1.35v11.651h-19.401c-2.515 0-3.128-2.09-3.2-3.843-.041-.994.053-5.978 5.905-6.458zm-17.751-5.178c-2.259 3.704-3.314 8.037-3.141 12.25.045 1.091.184 2.142.378 3.166 0 .021-.012.042-.008.062h-36.336v-28.473l39.136 12.937c-.012.02-.018.039-.029.058zm15.088 30.478h66.601c1.449 0 2.868-.42 4.083-1.209l3.395-2.204c1.633 7.218 3.493 14.242 5.519 20.876-15.296 4.515-39.575 19.106-39.575 66.158v39.581c-5.262 1.062-11.487 3.516-16.694 8.965-5.489 5.744-8.624 13.527-9.376 23.189h-15.13c-15.246-43.938-21.044-90.694 1.177-155.356zm12.362 189.458c-2.772-6.375-5.444-12.726-7.96-19.101h77.874c10.093 0 15.21-4.595 15.21-13.656v-26.752-28.302h59.199c4.143 0 7.5-3.357 7.5-7.5s-3.357-7.5-7.5-7.5h-59.145c.096-4.26.369-7.744 1.15-9.802.379-1.001.707-1.865 4.826-1.865l26.928-.028c16.865-.016 28.93-4.096 36.885-12.474.368-.388.716-.795 1.065-1.2h47.706 53.615v20.613c0 2.578-2.173 4.756-4.745 4.756h-74.665c-4.143 0-7.5 3.357-7.5 7.5s3.357 7.5 7.5 7.5h70.258c5.928 11.003 11.26 24.694 10.943 46.325-14.838-20.611-38.859-33.864-66.121-33.864-21.894 0-42.438 8.588-57.849 24.183-13.675 13.837-21.888 31.796-23.578 51.192zm193.958 54.723c-23.446 0-43.22-16.893-48.004-39.696h96.008c-4.785 22.801-24.559 39.696-48.004 39.696zm56.524-54.696h-113.046-10.775c3.682-33.913 32.038-60.377 66.362-60.377 30.135 0 55.442 19.871 63.823 47.688.027.088.054.176.084.263 1.185 3.991 2.022 8.145 2.475 12.426zm71.926-155.395c0 6.721-5.461 12.188-12.173 12.188h-98.998v-38.731h111.171zm0-41.543h-111.171v-15.951h111.171zm0-30.951h-111.171v-15.252c0-6.721 5.461-12.188 12.173-12.188h86.825c6.712 0 12.173 5.468 12.173 12.188z"/></g></svg>