<?xml version="1.0"?>
<svg xmlns="http://www.w3.org/2000/svg" xmlns:xlink="http://www.w3.org/1999/xlink" xmlns:svgjs="http://svgjs.com/svgjs" version="1.1" width="512" height="512" x="0" y="0" viewBox="0 0 448 448" style="enable-background:new 0 0 512 512" xml:space="preserve" class=""><g><path xmlns="http://www.w3.org/2000/svg" d="m224 0c-123.710938 0-224 100.289062-224 224s100.289062 224 224 224 224-100.289062 224-224c-.140625-123.652344-100.347656-223.859375-224-224zm-60.296875 120.222656c4.828125-2.804687 9.847656-5.273437 15.015625-7.382812 4.097656-1.664063 8.765625.304687 10.433594 4.398437 1.664062 4.097657-.304688 8.769531-4.398438 10.433594-4.480468 1.816406-8.816406 3.957031-12.984375 6.398437-3.820312 2.226563-8.722656.9375-10.949219-2.882812-2.226562-3.820312-.9375-8.71875 2.882813-10.949219zm-36.949219 33.457032c3.269532-4.511719 6.851563-8.789063 10.71875-12.800782 3.058594-3.1875 8.125-3.289062 11.3125-.230468 3.1875 3.058593 3.289063 8.125.230469 11.3125-3.355469 3.496093-6.464844 7.21875-9.3125 11.144531-2.613281 3.515625-7.570313 4.273437-11.117187 1.703125-3.546876-2.574219-4.363282-7.519532-1.832032-11.097656zm-20.210937 45.601562c1.148437-5.476562 2.679687-10.867188 4.585937-16.128906.953125-2.71875 3.289063-4.714844 6.121094-5.226563 2.835938-.511719 5.722656.535157 7.570312 2.746094 1.84375 2.210937 2.359376 5.242187 1.347657 7.9375-1.660157 4.546875-3 9.210937-4 13.949219-.773438 3.703125-4.035157 6.355468-7.816407 6.363281-.554687-.003906-1.105468-.058594-1.648437-.167969-4.296875-.921875-7.046875-5.136718-6.160156-9.441406zm237.457031 24.71875c0 3.632812-.222656 7.265625-.550781 10.878906-.089844.960938-.191407 1.921875-.296875 2.882813-.105469.957031-.175782 1.957031-.3125 2.925781-.070313.273438-.160156.539062-.265625.800781-1.53125 10.609375-4.488281 20.960938-8.796875 30.777344-.066406.175781 0 .359375-.121094.535156-2.273438 5.097657-4.898438 10.03125-7.855469 14.765625-.242187.351563-.507812.679688-.800781.984375-5.640625 8.769531-12.394531 16.773438-20.089844 23.808594-.171875.28125-.367187.546875-.582031.800781-1.199219 1.078125-2.472656 2.085938-3.71875 3.128906-.195313.152344-.371094.3125-.554687.464844-2.878907 2.359375-5.824219 4.636719-8.886719 6.710938-.113281.070312-.230469.085937-.34375.160156-9.03125 6.050781-18.84375 10.839844-29.167969 14.238281-.167969.074219-.289062.207031-.472656.273438-.382813.121093-.800782.207031-1.167969.335937s-.925781.253906-1.390625.390625c-2.945312.890625-5.933594 1.660157-8.96875 2.3125-.878906.191407-1.753906.390625-2.640625.558594-.695313.136719-1.375.320313-2.070313.441406-.464843.085938-.933593.128907-1.402343.128907h-.09375c-6.425781 1.09375-12.929688 1.660156-19.449219 1.695312-3.921875 0-7.792969-.214844-11.625-.601562-.253906 0-.519531 0-.800781 0-5.558594-.570313-11.070313-1.53125-16.496094-2.871094-.242187-.101563-.484375-.214844-.71875-.34375-9.890625-2.570313-19.410156-6.394532-28.328125-11.382813-.664062-.183593-1.300781-.453125-1.894531-.800781-4.84375-2.785156-9.484375-5.910156-13.890625-9.351562-.335938-.328126-.644532-.6875-.917969-1.074219-8.109375-6.46875-15.355469-13.949219-21.558594-22.261719-.226562-.242188-.539062-.351562-.738281-.625-3.292969-4.507812-6.265625-9.246094-8.894531-14.175781-.078125-.214844-.144531-.433594-.199219-.65625-3.917969-7.378907-7.042969-15.15625-9.3125-23.199219l-5.425781 10.917969c-1.972657 3.957031-6.78125 5.5625-10.734375 3.585937-3.957032-1.976562-5.558594-6.78125-3.585938-10.734375l16-32c.832032-1.582031 2.171875-2.835937 3.808594-3.554687.761719-.34375 1.570312-.5625 2.402344-.648438.207031-.085937.421875-.160156.636718-.222656.121094.007812.238282.027344.351563.054688 1.214844-.003907 2.410156.269531 3.496094.800781l32 16c3.957031 1.976562 5.5625 6.78125 3.585937 10.738281-1.976562 3.953125-6.78125 5.558594-10.734375 3.582031l-17.960937-8.984375c11.972656 55.324219 66.074218 90.847656 121.597656 79.839844l1.984375-.421875c2.722656-.59375 5.402344-1.273437 8-2.074219.359375-.101562.738281-.199218 1.097656-.3125 12.675781-4 24.46875-10.398437 34.734375-18.847656l.472656-.375c20.636719-17.097656 33.863282-41.511719 36.921876-68.136719.085937-.800781.175781-1.597656.246093-2.398437.28125-3.121094.480469-6.273438.480469-9.472656.003906-10.304688-1.53125-20.550782-4.550781-30.398438-.152344-.496094-.328125-.992188-.488281-1.488281-.855469-2.667969-1.808594-5.273438-2.863282-7.816407-.167968-.402343-.320312-.800781-.496094-1.210937-4.496093-10.382813-10.652343-19.964844-18.234374-28.367187-1.96875-2.199219-4-4.328126-6.175782-6.398438-8.824218-8.351562-19.039062-15.097656-30.183594-19.9375l-.871093-.382812c-12.367188-5.175782-25.625-7.890626-39.03125-8-4.109375-.058594-8.21875.121093-12.304688.535156-.285156.03125-.570312.046875-.855469.046875-4.234374-.035157-7.707031-3.367188-7.917968-7.597657-.214844-4.230468 2.90625-7.890624 7.117187-8.351562 4.160157-.421875 8.34375-.628906 12.527344-.617188.128906 0 .230469-.070312.359375-.070312.457031 0 .898438.0625 1.351562.070312h2.472657c.25 0 .457031.136719.703125.167969 10.839844.363281 21.578125 2.203125 31.921875 5.464844h.253906c3.203125 1.023437 6.402344 2.238281 9.488281 3.542969.464844.191406.914063.410156 1.371094.609375 1.597656.679687 3.199219 1.328125 4.695312 2.070312.238282.15625.464844.332031.679688.519531 9.488281 4.6875 18.316406 10.605469 26.253906 17.601563.277344.136719.542969.292969.800782.464844 4.15625 3.726562 8.050781 7.734375 11.65625 12 .105468.125.128906.285156.222656.414062 6.910156 8.257813 12.675781 17.40625 17.144531 27.199219.164063.203125.316406.414062.457031.632812.296875.65625.527344 1.335938.800782 2 .222656.519532.429687 1.058594.648437 1.601563 1.199219 2.925781 2.285156 5.886719 3.253906 8.878906.183594.578125.386719 1.144531.570313 1.71875.183594.578125.351562 1.015625.496094 1.53125.0625.207031 0 .40625.054687.613281 3.03125 10.519532 4.601563 21.402344 4.671875 32.34375v.152344zm-82.34375 26.34375c2.078125 2.007812 2.914062 4.984375 2.179688 7.78125-.730469 2.796875-2.914063 4.980469-5.710938 5.710938-2.796875.734374-5.773438-.101563-7.78125-2.179688l-32-32c-1.5-1.5-2.34375-3.535156-2.34375-5.65625v-64c0-4.417969 3.582031-8 8-8s8 3.582031 8 8v60.6875zm0 0" fill="#ffffff" data-original="#000000" style="" class=""/></g></svg>
