<?xml version="1.0"?>
<svg xmlns="http://www.w3.org/2000/svg" xmlns:xlink="http://www.w3.org/1999/xlink" xmlns:svgjs="http://svgjs.com/svgjs" version="1.1" width="512" height="512" x="0" y="0" viewBox="0 0 56.494 56.494" style="enable-background:new 0 0 512 512" xml:space="preserve" class=""><g transform="matrix(-0.9400000000000001,0,0,0.9400000000000001,54.799505119323754,1.6948381796479381)">
<g xmlns="http://www.w3.org/2000/svg">
	<g>
		<path style="" d="M25.056,9.88c2.658,0.656,5.338-0.993,5.985-3.682c0.648-2.688-0.982-5.399-3.64-6.054    s-5.338,0.993-5.986,3.682C20.768,6.515,22.398,9.225,25.056,9.88z" fill="#3369ff" data-original="#010002" class=""/>
		<path style="" d="M45.217,28.958c-2.92-6.812-7.662-12.625-13.716-16.814c-0.833-0.578-1.848-0.67-2.733-0.356    c-1.879-0.06-3.818,0.798-4.835,2.404c-3.305-2.894-5.775-6.87-6.902-11.207C16.6,1.336,14.928,0.35,13.302,0.784    c-1.631,0.434-2.604,2.123-2.176,3.771c1.688,6.49,5.739,12.364,11.116,16.118c0.5,0.349,1.068,0.521,1.634,0.539    c0.517,3.229,0.965,6.471,1.36,9.716c-7.25,6.354-9.056,14.531-5.066,23.14c0.52,1.119,1.619,1.776,2.766,1.776    c0.434,0,0.875-0.096,1.295-0.293c1.526-0.726,2.183-2.562,1.468-4.105c-2.908-6.271-1.603-11.575,3.967-16.213    c0.219,0.011,0.438,0.007,0.656-0.008c1.123,6.271,2.248,12.544,3.369,18.814c0.701,3.916,6.717,2.846,6.014-1.082    c-1.354-7.539-2.702-15.08-4.055-22.619c-0.032-0.188-0.081-0.358-0.139-0.522c-0.004-0.205-0.02-0.416-0.045-0.631    c-0.236-1.95-0.496-3.899-0.775-5.845c2.006,2.426,3.666,5.14,4.924,8.075c0.5,1.164,1.623,1.86,2.803,1.86    c0.406,0,0.814-0.082,1.213-0.256C45.176,32.34,45.887,30.522,45.217,28.958z" fill="#3369ff" data-original="#010002" class=""/>
	</g>
</g>
<g xmlns="http://www.w3.org/2000/svg">
</g>
<g xmlns="http://www.w3.org/2000/svg">
</g>
<g xmlns="http://www.w3.org/2000/svg">
</g>
<g xmlns="http://www.w3.org/2000/svg">
</g>
<g xmlns="http://www.w3.org/2000/svg">
</g>
<g xmlns="http://www.w3.org/2000/svg">
</g>
<g xmlns="http://www.w3.org/2000/svg">
</g>
<g xmlns="http://www.w3.org/2000/svg">
</g>
<g xmlns="http://www.w3.org/2000/svg">
</g>
<g xmlns="http://www.w3.org/2000/svg">
</g>
<g xmlns="http://www.w3.org/2000/svg">
</g>
<g xmlns="http://www.w3.org/2000/svg">
</g>
<g xmlns="http://www.w3.org/2000/svg">
</g>
<g xmlns="http://www.w3.org/2000/svg">
</g>
<g xmlns="http://www.w3.org/2000/svg">
</g>
</g></svg>
