<?xml version="1.0"?>
<svg xmlns="http://www.w3.org/2000/svg" xmlns:xlink="http://www.w3.org/1999/xlink" xmlns:svgjs="http://svgjs.com/svgjs" version="1.1" width="512" height="512" x="0" y="0" viewBox="0 0 198.684 198.684" style="enable-background:new 0 0 512 512" xml:space="preserve" class=""><g>
<g xmlns="http://www.w3.org/2000/svg">
	<g>
		<ellipse cx="99.456" cy="35.662" rx="15.068" ry="14.871" fill="#ffffff" data-original="#000000" style="" class=""/>
		<path d="M120.546,54.479c-1.512-1.11-3.339-1.713-5.214-1.716l-32.686-0.042C71.676,42.149,75.12,16.474,77.624,6.718    c0.744-2.873-0.984-5.804-3.857-6.547C70.9-0.569,67.962,1.157,67.22,4.03c-0.484,1.88-11.59,46.215,13.329,60.432    c0.293,0.168,0.925,0.473,0.925,0.473l-0.1,125.689c0,4.45,3.629,8.06,8.079,8.06c4.451,0,8.079-3.608,8.079-8.06v-60.905h3.889    v60.905c0,4.45,3.578,8.06,8.03,8.06c4.45,0,8.028-3.608,8.028-8.06V66.52c9.475,11.288,6.174,35.289,3.77,44.653    c-0.742,2.872,0.986,5.804,3.859,6.547c0.451,0.116,0.903,0.171,1.349,0.171c2.391,0,4.572-1.606,5.198-4.029    C132.123,112.052,142.046,70.269,120.546,54.479z" fill="#ffffff" data-original="#000000" style="" class=""/>
	</g>
</g>
<g xmlns="http://www.w3.org/2000/svg">
</g>
<g xmlns="http://www.w3.org/2000/svg">
</g>
<g xmlns="http://www.w3.org/2000/svg">
</g>
<g xmlns="http://www.w3.org/2000/svg">
</g>
<g xmlns="http://www.w3.org/2000/svg">
</g>
<g xmlns="http://www.w3.org/2000/svg">
</g>
<g xmlns="http://www.w3.org/2000/svg">
</g>
<g xmlns="http://www.w3.org/2000/svg">
</g>
<g xmlns="http://www.w3.org/2000/svg">
</g>
<g xmlns="http://www.w3.org/2000/svg">
</g>
<g xmlns="http://www.w3.org/2000/svg">
</g>
<g xmlns="http://www.w3.org/2000/svg">
</g>
<g xmlns="http://www.w3.org/2000/svg">
</g>
<g xmlns="http://www.w3.org/2000/svg">
</g>
<g xmlns="http://www.w3.org/2000/svg">
</g>
</g></svg>
